<?xml version="1.0" encoding="UTF-8" standalone="no"?>
<!DOCTYPE svg PUBLIC "-//W3C//DTD SVG 1.1//EN" "http://www.w3.org/Graphics/SVG/1.1/DTD/svg11.dtd">
<svg width="100%" height="100%" viewBox="0 0 280 280" version="1.1" xmlns="http://www.w3.org/2000/svg" xmlns:xlink="http://www.w3.org/1999/xlink" xml:space="preserve" xmlns:serif="http://www.serif.com/" style="fill-rule:evenodd;clip-rule:evenodd;stroke-miterlimit:10;">
    <g transform="matrix(7.55127,0,0,7.55127,9.12523,147.674)">
        <g transform="matrix(0.132428,0,0,0.132428,-1.20844,-19.5562)">
            <path d="M174.582,119.051C205.781,108.637 239.903,97.187 266.707,90.171L270.875,89.084C267.228,98.689 263.437,108.279 259.51,117.763C249.293,142.388 239.001,166.99 226.934,190.807L226.398,191.856L225.22,192.091C174.407,201.635 123.134,209.232 71.491,212.419L70.381,212.471L69.724,211.86C51.662,195.481 26.931,171.007 9.125,153.881C29.985,150.161 56.635,145.267 82.141,140.746L111.911,65.582L174.582,119.051Z" style="fill:white;fill-rule:nonzero;stroke:white;stroke-width:8.5px;"/>
        </g>
        <g transform="matrix(0.132428,0,0,0.132428,-1.20844,-19.5562)">
            <path d="M174.582,119.051C205.781,108.637 239.903,97.187 266.707,90.171L270.875,89.084C267.228,98.689 263.437,108.279 259.51,117.763C249.293,142.388 239.001,166.99 226.934,190.807L226.398,191.856L225.22,192.091C174.407,201.635 123.134,209.232 71.491,212.419L70.381,212.471L69.724,211.86C51.662,195.481 26.931,171.007 9.125,153.881C29.985,150.161 56.635,145.267 82.141,140.746L111.911,65.582L174.582,119.051ZM263.09,96.112C263.095,96.101 263.094,96.111 263.09,96.112C226.518,110.022 174.816,125.563 138.501,137.653C102.361,143.37 50.046,150.166 13.256,155.127C30.875,170.517 54.784,192.152 71.882,208.006C71.566,208.074 72.199,207.937 71.882,208.006C71.609,207.753 72.16,208.264 71.882,208.006C84.241,205.333 96.669,203.215 109.112,201.197C147.028,195.395 185.114,190.729 223.388,187.975C232.43,163.352 243.2,139.407 254.043,115.498C256.993,109.011 260.001,102.544 263.09,96.112ZM223.388,187.975C223.243,188.37 223.532,187.58 223.388,187.975L223.388,187.974C222.963,188.005 223.81,187.945 223.388,187.975ZM111.455,72.477C115.991,84.583 124.636,107.98 128.751,118.035C130.439,122.68 132.097,127.335 133.728,131.999C119.617,134.207 102.435,137.157 84.587,140.313L111.455,72.477ZM115.574,71.486L172.241,119.832C159.548,124.068 147.391,128.105 136.462,131.575C136.15,131.623 135.835,131.671 135.52,131.72C128.579,111.62 121.972,90.99 115.574,71.486Z" style="fill:rgb(30,28,26);stroke:black;stroke-width:5px;stroke-linecap:round;stroke-linejoin:round;stroke-miterlimit:2;"/>
        </g>
    </g>
</svg>
