<?xml version="1.0" standalone="no"?>
<!DOCTYPE svg PUBLIC "-//W3C//DTD SVG 20010904//EN"
 "http://www.w3.org/TR/2001/REC-SVG-20010904/DTD/svg10.dtd">
<svg version="1.0" xmlns="http://www.w3.org/2000/svg"
 width="700.000000pt" height="700.000000pt" viewBox="0 0 700.000000 700.000000"
 preserveAspectRatio="xMidYMid meet">
<metadata>
Created by potrace 1.14, written by Peter Selinger 2001-2017
</metadata>
<g transform="translate(0.000000,700.000000) scale(0.100000,-0.100000)"
fill="#000000" stroke="none">
<path d="M2739 5503 c-5 -16 -25 -66 -44 -113 -19 -47 -102 -258 -186 -470
-83 -212 -157 -398 -164 -415 -7 -16 -63 -158 -125 -315 -258 -653 -241 -613
-280 -622 -19 -4 -53 -10 -75 -12 -22 -3 -47 -7 -55 -10 -8 -3 -31 -7 -50 -10
-19 -3 -71 -12 -115 -20 -44 -9 -96 -18 -115 -21 -19 -3 -69 -12 -110 -20 -41
-8 -115 -21 -165 -30 -49 -8 -101 -17 -115 -20 -14 -3 -40 -7 -59 -10 -18 -2
-41 -7 -50 -9 -9 -3 -33 -8 -53 -10 -20 -3 -70 -12 -110 -20 -40 -8 -89 -17
-108 -20 -19 -3 -60 -10 -90 -15 -30 -6 -107 -19 -170 -31 -63 -11 -126 -22
-140 -25 -14 -3 -38 -7 -55 -10 -16 -3 -52 -10 -80 -15 -27 -5 -66 -12 -85
-15 -51 -8 -92 -16 -114 -22 -15 -4 -2 -22 75 -95 52 -50 201 -195 332 -322
397 -384 786 -759 847 -816 19 -18 96 -89 170 -159 74 -69 159 -148 189 -176
31 -27 62 -56 69 -63 14 -13 50 -12 262 3 36 3 97 7 135 10 103 7 205 16 245
20 19 2 71 7 115 10 44 4 94 8 110 10 17 1 64 6 105 10 41 4 86 8 100 10 14 1
57 6 95 9 39 4 84 9 100 11 26 4 84 10 265 31 25 3 56 7 70 9 14 2 50 6 80 9
30 3 64 8 75 10 11 2 47 7 80 10 81 10 167 22 225 31 14 2 48 6 75 10 62 8 96
12 210 30 50 8 110 17 135 20 25 3 56 8 70 10 14 2 70 11 125 20 108 17 636
104 669 111 11 2 36 6 56 9 37 5 48 8 135 24 28 6 64 12 80 15 23 4 216 39
380 70 30 5 32 9 241 444 41 84 74 154 74 156 0 3 22 51 49 108 27 56 101 225
165 373 65 149 123 284 130 300 8 17 53 125 101 240 48 116 93 224 100 240 31
73 87 211 140 345 31 80 61 155 66 168 5 12 13 32 18 45 22 53 151 394 151
398 0 3 -91 -19 -202 -48 -112 -30 -212 -56 -223 -58 -11 -3 -83 -23 -160 -45
-77 -23 -147 -43 -155 -45 -128 -32 -718 -219 -1410 -448 -223 -74 -407 -131
-410 -128 -3 4 -79 69 -170 146 -91 77 -167 142 -170 145 -3 3 -23 20 -45 39
-22 18 -65 55 -95 81 -30 26 -152 130 -270 230 -118 101 -249 212 -290 248
-115 99 -117 100 -255 217 -71 60 -132 112 -135 115 -17 18 -188 160 -194 160
-3 0 -11 -12 -17 -27z"/>
</g>
</svg>
